/* XPM */
static char * energi128_xpm[] = {
"128 128 2 1",
" 	c None",
".	c #0BC98D",
"                                                                                                                                ",
"                                                                                                                                ",
"                                                               ...                                                              ",
"                                                              .....                                                             ",
"                                                             .......                                                            ",
"                                                            .........                                                           ",
"                                                           ...........                                                          ",
"                                                          .............                                                         ",
"                                                         ...............                                                        ",
"                                                        .................                                                       ",
"                                                       ...................                                                      ",
"                                                      .....................                                                     ",
"                                                     .......................                                                    ",
"                                                    .........................                                                   ",
"                                                   ...........................                                                  ",
"                                                  .............................                                                 ",
"                                                 ...............................                                                ",
"                                                .................................                                               ",
"                                               ...................................                                              ",
"                                              .....................................                                             ",
"                                             .......................................                                            ",
"                                            .........................................                                           ",
"                                           ...........................................                                          ",
"                                          .............................................                                         ",
"                                         ...............................................                                        ",
"                                        .................................................                                       ",
"                                       ...................................................                                      ",
"                                      .....................................................                                     ",
"                                     .......................................................                                    ",
"                                    .........................................................                                   ",
"                                   ...........................................................                                  ",
"                                  ............................. ...............................                                 ",
"                                 .............................    ..............................                                ",
"                                .............................     ...............................                               ",
"                               .............................       ...............................                              ",
"                              .............................          ..............................                             ",
"                             .............................           ...............................                            ",
"                            .............................             ...............................                           ",
"                           .............................               ...............................                          ",
"                          .............................                 ..............................                          ",
"                         .............................                  .............................                           ",
"                        .............................                  .............................                            ",
"                       .............................                  .............................                             ",
"                      .............................                  .............................                              ",
"                     .............................                  .............................                               ",
"                    .............................                  .............................                                ",
"                   .............................                  .............................                                 ",
"                  .............................                  .............................                                  ",
"                 .............................                  .............................                                   ",
"                .............................                  .............................                                    ",
"               .............................                  .............................                     ..              ",
"              .............................                  .............................                     ....             ",
"             .............................                  .............................                     ......            ",
"            .............................                  .............................                     ........           ",
"           .............................                  .............................                     ..........          ",
"          .............................                  .............................                     ............         ",
"         .............................                  .............................                     ..............        ",
"        .............................                  .............................                     ................       ",
"       .............................                  .............................                     ..................      ",
"      .............................                  .............................                     ....................     ",
"     .............................                  .............................                     ......................    ",
"    .............................                  .............................                     ........................   ",
"   .............................                  .............................                     ..........................  ",
"  .............................                   ............................                    ............................  ",
"   ...........................                    ...........................                     ............................  ",
"    ...........................                    .........................                     ............................   ",
"     ...........................                    .......................                     ............................    ",
"      ...........................                    .....................                     ............................     ",
"       ..........................                     ...................                     ............................      ",
"        ...........................                    .................                     ............................       ",
"         ...........................                    ...............                     ............................        ",
"          ...........................                    .............                     ............................         ",
"           ...........................                    ...........                     ............................          ",
"            ...........................                    .........                     ............................           ",
"             ...........................                    .......                     ............................            ",
"              ...........................                    .....                     ............................             ",
"               ...........................                    ...                     ............................              ",
"                ...........................                                          ............................               ",
"                 ...........................                                        ............................                ",
"                  ...........................                                      ............................                 ",
"                   ...........................                                   .............................                  ",
"                    ...........................                                  ............................                   ",
"                     ...........................                                ............................                    ",
"                      ...........................                              ............................                     ",
"                       ...........................                            ............................                      ",
"                        ...........................                          ............................                       ",
"                         ...........................                        ............................                        ",
"                          ...........................                      ............................                         ",
"                           ...........................                    ............................                          ",
"                            ...........................                  ............................                           ",
"                             ...........................                ............................                            ",
"                              ...........................              ............................                             ",
"                               ...........................            ............................                              ",
"                                ...........................          ............................                               ",
"                                 ...........................        ............................                                ",
"                                  ...........................      ............................                                 ",
"                                   ...........................    ............................                                  ",
"                                    ...........................  ............................                                   ",
"                                     .......................................................                                    ",
"                                      .....................................................                                     ",
"                                       ...................................................                                      ",
"                                        .................................................                                       ",
"                                         ...............................................                                        ",
"                                          .............................................                                         ",
"                                           ...........................................                                          ",
"                                            .........................................                                           ",
"                                             .......................................                                            ",
"                                              .....................................                                             ",
"                                               ...................................                                              ",
"                                                .................................                                               ",
"                                                 ...............................                                                ",
"                                                  .............................                                                 ",
"                                                   ...........................                                                  ",
"                                                    .........................                                                   ",
"                                                     .......................                                                    ",
"                                                      .....................                                                     ",
"                                                       ...................                                                      ",
"                                                        .................                                                       ",
"                                                         ...............                                                        ",
"                                                          .............                                                         ",
"                                                           ...........                                                          ",
"                                                            .........                                                           ",
"                                                             .......                                                            ",
"                                                              .....                                                             ",
"                                                               ...                                                              ",
"                                                                .                                                               ",
"                                                                                                                                ",
"                                                                                                                                "};
