/* XPM */
static char * energi16_xpm[] = {
"16 16 2 1",
" 	c None",
".	c #0AC98D",
"                ",
"       ..       ",
"       ...      ",
"      .....     ",
"     ... ...    ",
"    ...  ...    ",
"   ...  ...     ",
" ....  ...  ... ",
" .... ...  .... ",
"   ... .  ....  ",
"    ...  ....   ",
"     .......    ",
"      .....     ",
"       ...      ",
"       ..       ",
"                "};
