/* XPM */
static char * energi64_xpm[] = {
"64 64 2 1",
" 	c None",
".	c #0AC98D",
"                                                                ",
"                                                                ",
"                               ..                               ",
"                              ....                              ",
"                             ......                             ",
"                            .........                           ",
"                           ..........                           ",
"                          ............                          ",
"                         ..............                         ",
"                        .................                       ",
"                       ..................                       ",
"                      ....................                      ",
"                     .......................                    ",
"                    .........................                   ",
"                   ...........................                  ",
"                  ............... ............                  ",
"                 ...............   ............                 ",
"                ...............     .............               ",
"               ...............       .............              ",
"              ...............       ..............              ",
"             ...............       ................             ",
"            ...............       .................             ",
"           ...............       .................              ",
"          ...............       .................               ",
"         ...............       .................                ",
"        ...............       .................       ...       ",
"       ...............       .................       .....      ",
"      ...............       .................        ......     ",
"     ...............       .................        ........    ",
"    ...............       .................       ...........   ",
"   ...............       .................       .............  ",
"  ...............       .................       ............... ",
" ...............       .................        ............... ",
"   .............       ................       ................  ",
"    .............       ..............       ................   ",
"     .............       ............       ................    ",
"      .............       ..........        ...............     ",
"       .............       ........       ................      ",
"        .............       ......       ................       ",
"         .............       ....       ................        ",
"          .............       ..       ................         ",
"           .............              ................          ",
"            .............            ................           ",
"             .............          ................            ",
"              .............        ................             ",
"               .............      ................              ",
"                .............    ................               ",
"                 .............  ................                ",
"                  .............................                 ",
"                   ...........................                  ",
"                    .........................                   ",
"                     .......................                    ",
"                      .....................                     ",
"                       ...................                      ",
"                        .................                       ",
"                         ...............                        ",
"                          .............                         ",
"                           ...........                          ",
"                            .........                           ",
"                             .......                            ",
"                              .....                             ",
"                               ...                              ",
"                                .                               ",
"                                                                "};
